<svg width="100" height="33" viewBox="0 0 100 33" fill="none" xmlns="http://www.w3.org/2000/svg">
<path d="M99.2284 15.3857C99.517 15.3857 99.7178 15.4231 99.8307 15.4979C99.9437 15.5727 100 15.6974 100 15.8719C100 16.1711 99.837 17.237 99.5108 19.0696C99.2222 20.8275 99.0528 21.8685 99.0026 22.1926C98.5383 25.3966 97.8984 27.9336 97.0828 29.8036C96.2673 31.6737 95.1819 32.6087 93.8268 32.6087C93.1869 32.6087 92.6661 32.4092 92.2646 32.0103C91.8631 31.6238 91.6624 31.1127 91.6624 30.4769C91.6624 29.8909 91.7941 29.2925 92.0576 28.6816C92.3336 28.0707 92.8355 27.3664 93.5633 26.5685C94.3036 25.7831 95.345 24.8792 96.6876 23.8569L96.7441 23.4268C96.8319 22.9656 96.9323 22.3048 97.0452 21.4446C96.7943 22.3422 96.4429 23.0279 95.9912 23.5016C95.5395 23.9629 95.0627 24.1935 94.5608 24.1935C93.9962 24.1935 93.5319 23.938 93.168 23.4268C92.8167 22.9032 92.6411 22.2549 92.6411 21.482C92.6411 20.547 92.7038 19.693 92.8293 18.92C92.9547 18.1346 93.1618 17.3056 93.4504 16.4329C93.5758 16.0589 93.7515 15.7909 93.9774 15.6288C94.2032 15.4667 94.5608 15.3857 95.0502 15.3857C95.3262 15.3857 95.5144 15.4293 95.6148 15.5166C95.7277 15.6039 95.7842 15.7348 95.7842 15.9093C95.7842 16.009 95.7152 16.3456 95.5771 16.9191C95.4517 17.3804 95.3513 17.798 95.276 18.172C95.1756 18.6832 95.0878 19.1756 95.0125 19.6494C94.9372 20.1106 94.8996 20.4909 94.8996 20.7901C94.8996 21.2638 95.0313 21.5007 95.2948 21.5007C95.483 21.5007 95.7152 21.3137 95.9912 20.9397C96.2798 20.5657 96.5809 19.9984 96.8946 19.238C97.2209 18.4775 97.5345 17.5425 97.8357 16.4329C97.9361 16.0589 98.0866 15.7909 98.2874 15.6288C98.5007 15.4667 98.8144 15.3857 99.2284 15.3857ZM94.0338 30.7948C94.3475 30.7948 94.6988 30.4332 95.0878 29.7101C95.4768 28.9871 95.8657 27.784 96.2547 26.101C95.2886 26.9113 94.5859 27.6469 94.1467 28.3076C93.7201 28.9808 93.5068 29.5668 93.5068 30.0655C93.5068 30.2774 93.5445 30.4519 93.6197 30.5891C93.7076 30.7262 93.8456 30.7948 94.0338 30.7948Z" fill="black"/>
<path d="M93.6353 19.9299C93.7984 19.9299 93.9238 20.0047 94.0117 20.1543C94.1121 20.3039 94.1622 20.5096 94.1622 20.7714C94.1622 21.2701 94.043 21.6565 93.8046 21.9308C93.2651 22.5916 92.6754 23.1339 92.0355 23.5577C91.4081 23.9816 90.6929 24.1936 89.8898 24.1936C88.7857 24.1936 87.9638 23.6949 87.4243 22.6975C86.8973 21.7002 86.6338 20.4099 86.6338 18.8266C86.6338 17.3056 86.8283 15.5727 87.2172 13.6279C87.6188 11.683 88.2022 10.0125 88.9676 8.61617C89.7455 7.21987 90.6678 6.52173 91.7343 6.52173C92.3366 6.52173 92.8071 6.80223 93.1459 7.36324C93.4972 7.91179 93.6729 8.70344 93.6729 9.73819C93.6729 11.2217 93.2588 12.9422 92.4307 14.8995C91.6026 16.8568 90.4796 18.7954 89.0617 20.7153C89.1495 21.2264 89.2938 21.5942 89.4946 21.8186C89.6954 22.0305 89.9589 22.1365 90.2851 22.1365C90.7995 22.1365 91.2512 21.9931 91.6402 21.7064C92.0292 21.4072 92.5248 20.9023 93.1271 20.1917C93.2776 20.0171 93.447 19.9299 93.6353 19.9299ZM91.3202 8.37306C91.0317 8.37306 90.7054 8.89044 90.3416 9.92519C89.9777 10.9599 89.6577 12.244 89.3817 13.7775C89.1056 15.3109 88.9551 16.782 88.93 18.1907C89.8208 16.7321 90.5298 15.2735 91.0568 13.8149C91.5837 12.3438 91.8472 11.0036 91.8472 9.79429C91.8472 8.8468 91.6716 8.37306 91.3202 8.37306Z" fill="black"/>
<path d="M87.5075 19.9299C87.6706 19.9299 87.7961 20.0047 87.8839 20.1543C87.9843 20.3039 88.0345 20.5096 88.0345 20.7714C88.0345 21.2701 87.9153 21.6565 87.6769 21.9308C87.2126 22.4918 86.5539 23.0092 85.7006 23.4829C84.86 23.9567 83.9566 24.1935 82.9904 24.1935C81.6729 24.1935 80.6503 23.8382 79.9226 23.1276C79.1948 22.417 78.8309 21.4446 78.8309 20.2104C78.8309 19.3502 79.0129 18.5523 79.3767 17.8167C79.7406 17.0687 80.2425 16.4765 80.8824 16.0402C81.5349 15.6039 82.2689 15.3857 83.0845 15.3857C83.8123 15.3857 84.3957 15.6039 84.8349 16.0402C85.274 16.4641 85.4936 17.0438 85.4936 17.7793C85.4936 18.6395 85.1799 19.3813 84.5526 20.0047C83.9377 20.6155 82.89 21.1018 81.4094 21.4633C81.7231 22.0368 82.3191 22.3235 83.1974 22.3235C83.7621 22.3235 84.402 22.1303 85.1172 21.7438C85.8449 21.3449 86.4723 20.8275 86.9993 20.1917C87.1499 20.0171 87.3193 19.9299 87.5075 19.9299ZM82.7646 17.2183C82.3003 17.2183 81.905 17.4864 81.5788 18.0224C81.2651 18.5585 81.1083 19.2068 81.1083 19.9673V20.0047C81.8486 19.8301 82.432 19.5683 82.8587 19.2193C83.2853 18.8702 83.4986 18.465 83.4986 18.0037C83.4986 17.7669 83.4296 17.5799 83.2915 17.4427C83.1661 17.2931 82.9904 17.2183 82.7646 17.2183Z" fill="black"/>
<path d="M71.8845 24.1935C71.4077 24.1935 71.0689 23.9442 70.8681 23.4455C70.6799 22.9469 70.5858 22.149 70.5858 21.0519C70.5858 19.4312 70.8179 17.8915 71.2822 16.4329C71.3951 16.0714 71.5771 15.8096 71.828 15.6475C72.0915 15.4729 72.4554 15.3857 72.9196 15.3857C73.1706 15.3857 73.3462 15.4168 73.4466 15.4792C73.547 15.5415 73.5972 15.66 73.5972 15.8345C73.5972 16.034 73.5031 16.4828 73.3149 17.1809C73.1894 17.6796 73.089 18.1159 73.0137 18.4899C72.9385 18.8639 72.8757 19.3252 72.8255 19.8738C73.2396 18.8016 73.7039 17.9289 74.2183 17.2557C74.7327 16.5825 75.2346 16.1025 75.724 15.8158C76.2259 15.5291 76.6839 15.3857 77.0979 15.3857C77.9135 15.3857 78.3213 15.7909 78.3213 16.6012C78.3213 16.7633 78.2648 17.156 78.1519 17.7793C78.0515 18.278 78.0013 18.5897 78.0013 18.7143C78.0013 19.1507 78.1582 19.3689 78.4719 19.3689C78.8232 19.3689 79.2749 19.0946 79.827 18.546C79.9901 18.384 80.1595 18.3029 80.3352 18.3029C80.4983 18.3029 80.6238 18.3777 80.7116 18.5273C80.812 18.6645 80.8622 18.8515 80.8622 19.0883C80.8622 19.5496 80.7367 19.9112 80.4857 20.173C80.1344 20.5345 79.7203 20.8462 79.2435 21.108C78.7793 21.3573 78.2837 21.482 77.7567 21.482C77.0917 21.482 76.5835 21.3137 76.2322 20.9771C75.8934 20.6405 75.724 20.1854 75.724 19.612C75.724 19.425 75.7428 19.238 75.7804 19.0509C75.8055 18.8016 75.8181 18.6333 75.8181 18.546C75.8181 18.3466 75.7491 18.2468 75.6111 18.2468C75.4228 18.2468 75.1719 18.4588 74.8582 18.8826C74.5571 19.2941 74.2559 19.8426 73.9548 20.5283C73.6537 21.214 73.409 21.937 73.2208 22.6975C73.0828 23.2835 72.9196 23.6824 72.7314 23.8943C72.5558 24.0938 72.2734 24.1935 71.8845 24.1935Z" fill="black"/>
<path d="M64.0224 24.1938C63.2445 24.1938 62.6234 23.9133 62.1592 23.3523C61.6949 22.7913 61.4628 22.0558 61.4628 21.1457C61.4628 20.1483 61.6949 19.2071 62.1592 18.3219C62.6234 17.4243 63.2382 16.7075 64.0036 16.1714C64.7816 15.6228 65.6034 15.3486 66.4692 15.3486C66.7452 15.3486 66.9272 15.4047 67.015 15.5169C67.1154 15.6166 67.1969 15.8036 67.2597 16.0779C67.5232 16.028 67.7992 16.0031 68.0878 16.0031C68.7026 16.0031 69.01 16.2213 69.01 16.6576C69.01 16.9194 68.9159 17.5427 68.7277 18.5276C68.4391 19.9613 68.2948 20.9587 68.2948 21.5197C68.2948 21.7067 68.3388 21.8563 68.4266 21.9685C68.527 22.0807 68.6524 22.1368 68.803 22.1368C69.0414 22.1368 69.33 21.9872 69.6688 21.688C70.0076 21.3763 70.4655 20.8776 71.0427 20.192C71.1933 20.0174 71.3627 19.9302 71.5509 19.9302C71.714 19.9302 71.8395 20.005 71.9273 20.1546C72.0277 20.3042 72.0779 20.5099 72.0779 20.7717C72.0779 21.2703 71.9587 21.6568 71.7203 21.9311C71.2058 22.5669 70.66 23.103 70.0828 23.5393C69.5057 23.9757 68.9473 24.1938 68.4078 24.1938C67.9937 24.1938 67.611 24.0567 67.2597 23.7824C66.9209 23.4957 66.6637 23.1092 66.488 22.623C65.8355 23.6702 65.0137 24.1938 64.0224 24.1938ZM64.7 22.3051C64.976 22.3051 65.2395 22.143 65.4905 21.8189C65.7414 21.4948 65.9234 21.0646 66.0363 20.5286L66.7327 17.0877C66.2057 17.1002 65.7163 17.2996 65.2646 17.6861C64.8255 18.0601 64.4742 18.5588 64.2107 19.1821C63.9472 19.8055 63.8154 20.4662 63.8154 21.1644C63.8154 21.5509 63.8907 21.8376 64.0413 22.0246C64.2044 22.2116 64.424 22.3051 64.7 22.3051Z" fill="black"/>
<path d="M62.7059 19.9299C62.869 19.9299 62.9945 20.0047 63.0823 20.1543C63.1827 20.3039 63.2329 20.5096 63.2329 20.7714C63.2329 21.2701 63.1137 21.6565 62.8753 21.9308C62.2981 22.5916 61.7021 23.1339 61.0873 23.5577C60.485 23.9816 59.7949 24.1936 59.0169 24.1936C58.377 24.1936 57.8939 24.0128 57.5677 23.6512C57.2415 23.2772 57.0784 22.7412 57.0784 22.043C57.0784 21.6939 57.1662 21.0706 57.3419 20.173C57.505 19.3876 57.5865 18.8453 57.5865 18.546C57.5865 18.3466 57.5175 18.2468 57.3795 18.2468C57.2164 18.2468 56.9842 18.4588 56.6831 18.8827C56.382 19.2941 56.0808 19.8426 55.7797 20.5283C55.4786 21.214 55.2339 21.937 55.0457 22.6975C54.8073 23.6949 54.2175 24.1936 53.2765 24.1936C52.9001 24.1936 52.6491 24.0626 52.5236 23.8008C52.4107 23.5266 52.3542 23.0404 52.3542 22.3422C52.3542 21.9433 52.3605 21.6254 52.3731 21.3885L52.3919 19.8925C52.3919 17.9726 52.5864 15.9716 52.9753 13.8897C53.3769 11.8077 53.9603 10.0623 54.7257 8.65357C55.5037 7.23234 56.4322 6.52173 57.5112 6.52173C58.0884 6.52173 58.5527 6.77107 58.904 7.26974C59.2679 7.75595 59.4498 8.39176 59.4498 9.17718C59.4498 10.4363 59.0797 11.7454 58.3394 13.1043C57.5991 14.4507 56.3945 16.0277 54.7257 17.8354C54.6881 18.4837 54.6692 19.1507 54.6692 19.8364C55.0833 18.7767 55.5413 17.9165 56.0432 17.2557C56.5576 16.5825 57.0595 16.1025 57.5489 15.8158C58.0508 15.5291 58.5088 15.3857 58.9228 15.3857C59.7384 15.3857 60.1462 15.7909 60.1462 16.6012C60.1462 17.0874 60.0082 17.9663 59.7321 19.238C59.4937 20.3226 59.3745 21.0394 59.3745 21.3885C59.3745 21.8872 59.5565 22.1365 59.9203 22.1365C60.1713 22.1365 60.4662 21.9869 60.8049 21.6877C61.1563 21.376 61.6205 20.8774 62.1977 20.1917C62.3483 20.0171 62.5177 19.9299 62.7059 19.9299ZM57.116 8.37306C56.8901 8.37306 56.6392 8.6972 56.3632 9.34548C56.0871 9.98129 55.8173 10.8477 55.5538 11.9448C55.3029 13.0294 55.0959 14.2138 54.9327 15.4979C55.7107 14.5878 56.3506 13.5967 56.8525 12.5245C57.3669 11.4524 57.6242 10.48 57.6242 9.60729C57.6242 9.20834 57.5802 8.90291 57.4924 8.69097C57.4046 8.47903 57.2791 8.37306 57.116 8.37306Z" fill="black"/>
<path d="M44.6451 24.2497C42.9763 24.2497 41.64 23.938 40.6362 23.3147C39.6324 22.6789 39.1305 21.7127 39.1305 20.4161C39.1305 19.7305 39.2497 19.2068 39.4881 18.8453C39.7265 18.4838 40.0778 18.303 40.5421 18.303C40.8809 18.303 41.1569 18.3903 41.3702 18.5648C41.5835 18.7393 41.6902 18.9637 41.6902 19.238C41.6902 19.4874 41.6713 19.7055 41.6337 19.8925C41.6337 19.9424 41.6212 20.0297 41.5961 20.1543C41.5835 20.279 41.5772 20.4099 41.5772 20.547C41.5772 21.108 41.8596 21.5257 42.4242 21.8C43.0014 22.0742 43.8044 22.2114 44.8333 22.2114C45.8998 22.2114 46.7342 22.0244 47.3365 21.6504C47.9388 21.2639 48.2399 20.7278 48.2399 20.0421C48.2399 19.6183 48.1019 19.2567 47.8259 18.9575C47.5498 18.6458 47.2048 18.3903 46.7907 18.1908C46.3766 17.9789 45.7932 17.7233 45.0403 17.4241C44.0742 17.0501 43.2837 16.6948 42.6689 16.3582C42.0666 16.0216 41.5459 15.5665 41.1067 14.993C40.6801 14.4071 40.4668 13.684 40.4668 12.8238C40.4668 11.9262 40.7052 11.1283 41.182 10.4302C41.6713 9.732 42.3677 9.18969 43.2711 8.80322C44.1871 8.41675 45.2599 8.22351 46.4896 8.22351C47.4055 8.22351 48.2462 8.36065 49.0116 8.63492C49.777 8.89672 50.3855 9.3019 50.8372 9.85044C51.3015 10.399 51.5336 11.0722 51.5336 11.8701C51.5336 12.6555 51.4144 13.2477 51.176 13.6466C50.9376 14.0456 50.5863 14.245 50.122 14.245C49.7958 14.245 49.5198 14.1453 49.2939 13.9458C49.0806 13.7463 48.9739 13.5095 48.9739 13.2352C48.9739 12.9983 48.9928 12.7802 49.0304 12.5807C49.0681 12.2067 49.0869 11.9698 49.0869 11.8701C49.0869 11.3465 48.8297 10.9475 48.3152 10.6733C47.8008 10.399 47.1608 10.2618 46.3955 10.2618C45.3164 10.2618 44.4882 10.4613 43.9111 10.8603C43.3464 11.2467 43.0641 11.7953 43.0641 12.5059C43.0641 12.9796 43.2084 13.3848 43.497 13.7214C43.7981 14.058 44.1683 14.3385 44.6074 14.5629C45.0466 14.7873 45.6614 15.0554 46.4519 15.367C47.4055 15.7535 48.1709 16.1026 48.7481 16.4143C49.3253 16.7259 49.8146 17.1498 50.2161 17.6859C50.6302 18.222 50.8372 18.8827 50.8372 19.6681C50.8372 21.1392 50.2726 22.2737 49.1433 23.0716C48.0266 23.857 46.5272 24.2497 44.6451 24.2497Z" fill="black"/>
<path fill-rule="evenodd" clip-rule="evenodd" d="M10.9711 10.8696C4.96805 10.8696 0 15.736 0 21.7391C0 27.7422 4.96805 32.6087 10.9711 32.6087C16.9742 32.6087 21.9423 27.7422 21.9423 21.7391C21.9423 15.736 16.9742 10.8696 10.9711 10.8696ZM10.9711 14.4927C6.96908 14.4927 3.65704 17.737 3.65704 21.739C3.65704 25.7411 6.96908 28.9854 10.9711 28.9854C14.9732 28.9854 18.2852 25.7411 18.2852 21.739C18.2852 17.737 14.9732 14.4927 10.9711 14.4927Z" fill="url(#paint0_linear_3150_2049)"/>
<path fill-rule="evenodd" clip-rule="evenodd" d="M20.4186 0C13.7485 0 8.22839 5.40719 8.22839 12.0773C8.22839 18.7474 13.7485 24.1546 20.4186 24.1546C27.0887 24.1546 32.6087 18.7474 32.6087 12.0773C32.6087 5.40719 27.0887 0 20.4186 0ZM20.4186 3.62326C15.7495 3.62326 11.8854 7.40829 11.8854 12.0774C11.8854 16.7464 15.7495 20.5315 20.4186 20.5315C25.0876 20.5315 28.9517 16.7464 28.9517 12.0774C28.9517 7.40829 25.0876 3.62326 20.4186 3.62326Z" fill="url(#paint1_linear_3150_2049)"/>
<mask id="mask0_3150_2049" style="mask-type:alpha" maskUnits="userSpaceOnUse" x="8" y="10" width="5" height="6">
<rect x="8.22839" y="10.8696" width="4.26656" height="4.22705" fill="#D9D9D9"/>
</mask>
<g mask="url(#mask0_3150_2049)">
<mask id="mask1_3150_2049" style="mask-type:alpha" maskUnits="userSpaceOnUse" x="8" y="0" width="25" height="25">
<path fill-rule="evenodd" clip-rule="evenodd" d="M20.4186 0C13.7485 0 8.22839 5.40719 8.22839 12.0773C8.22839 18.7474 13.7485 24.1546 20.4186 24.1546C27.0887 24.1546 32.6087 18.7474 32.6087 12.0773C32.6087 5.40719 27.0887 0 20.4186 0ZM20.4186 3.62326C15.7495 3.62326 11.8854 7.40829 11.8854 12.0774C11.8854 16.7464 15.7495 20.5315 20.4186 20.5315C25.0876 20.5315 28.9517 16.7464 28.9517 12.0774C28.9517 7.40829 25.0876 3.62326 20.4186 3.62326Z" fill="url(#paint2_linear_3150_2049)"/>
</mask>
<g mask="url(#mask1_3150_2049)">
<path fill-rule="evenodd" clip-rule="evenodd" d="M10.9712 10.8696C4.96805 10.8696 0 15.7361 0 21.7392C0 27.7423 4.96805 32.6088 10.9712 32.6088C16.9742 32.6088 21.9423 27.7423 21.9423 21.7392C21.9423 15.7361 16.9742 10.8696 10.9712 10.8696ZM10.9711 14.4927C6.96908 14.4927 3.65704 17.737 3.65704 21.7391C3.65704 25.7412 6.96908 28.9855 10.9711 28.9855C14.9732 28.9855 18.2852 25.7412 18.2852 21.7391C18.2852 17.737 14.9732 14.4927 10.9711 14.4927Z" fill="url(#paint3_linear_3150_2049)"/>
</g>
</g>
<defs>
<linearGradient id="paint0_linear_3150_2049" x1="0" y1="10.8696" x2="21.7382" y2="32.8109" gradientUnits="userSpaceOnUse">
<stop stop-color="#76FFEF"/>
<stop offset="1" stop-color="#AA76FF"/>
</linearGradient>
<linearGradient id="paint1_linear_3150_2049" x1="8.22839" y1="0" x2="32.3819" y2="24.3793" gradientUnits="userSpaceOnUse">
<stop stop-color="#FFC876"/>
<stop offset="1" stop-color="#FF76C0"/>
</linearGradient>
<linearGradient id="paint2_linear_3150_2049" x1="8.22839" y1="0" x2="32.3819" y2="24.3793" gradientUnits="userSpaceOnUse">
<stop stop-color="#FFC876"/>
<stop offset="1" stop-color="#FF76C0"/>
</linearGradient>
<linearGradient id="paint3_linear_3150_2049" x1="0" y1="10.8696" x2="21.7382" y2="32.811" gradientUnits="userSpaceOnUse">
<stop stop-color="#76FFEF"/>
<stop offset="1" stop-color="#AA76FF"/>
</linearGradient>
</defs>
</svg>
