<svg width="100" height="150" viewBox="0 0 100 150" fill="none" xmlns="http://www.w3.org/2000/svg">
<path d="M98.7323 121.705C99.2064 121.705 99.5362 121.766 99.7217 121.889C99.9072 122.012 100 122.217 100 122.504C100 122.995 99.732 124.747 99.1961 127.757C98.722 130.645 98.4437 132.355 98.3612 132.888C97.5985 138.152 96.5472 142.32 95.2073 145.392C93.8674 148.464 92.0844 150 89.8581 150C88.8068 150 87.9513 149.672 87.2917 149.017C86.6321 148.382 86.3022 147.542 86.3022 146.498C86.3022 145.535 86.5187 144.552 86.9516 143.548C87.4051 142.545 88.2296 141.388 89.4252 140.077C90.6414 138.786 92.3523 137.302 94.558 135.622L94.6508 134.916C94.7951 134.158 94.96 133.072 95.1455 131.659C94.7332 133.134 94.156 134.26 93.4139 135.038C92.6719 135.796 91.8885 136.175 91.064 136.175C90.1364 136.175 89.3737 135.755 88.7759 134.916C88.1987 134.055 87.9101 132.99 87.9101 131.72C87.9101 130.184 88.0132 128.781 88.2193 127.512C88.4255 126.221 88.7656 124.859 89.2397 123.425C89.4458 122.811 89.7344 122.371 90.1055 122.104C90.4765 121.838 91.064 121.705 91.8679 121.705C92.3214 121.705 92.6306 121.777 92.7955 121.92C92.9811 122.063 93.0738 122.279 93.0738 122.565C93.0738 122.729 92.9604 123.282 92.7337 124.224C92.5276 124.982 92.3626 125.668 92.239 126.283C92.0741 127.122 91.9298 127.931 91.8061 128.71C91.6824 129.467 91.6206 130.092 91.6206 130.584C91.6206 131.362 91.837 131.751 92.2699 131.751C92.5791 131.751 92.9604 131.444 93.4139 130.829C93.8881 130.215 94.3828 129.283 94.8981 128.034C95.4341 126.784 95.9494 125.248 96.4441 123.425C96.6091 122.811 96.8564 122.371 97.1862 122.104C97.5367 121.838 98.052 121.705 98.7323 121.705ZM90.1982 147.02C90.7136 147.02 91.2907 146.426 91.9298 145.238C92.5688 144.05 93.2078 142.074 93.8468 139.309C92.2596 140.64 91.1052 141.848 90.3837 142.934C89.6829 144.04 89.3325 145.003 89.3325 145.822C89.3325 146.17 89.3943 146.457 89.518 146.682C89.6623 146.907 89.889 147.02 90.1982 147.02Z" fill="black"/>
<path d="M89.5435 129.171C89.8115 129.171 90.0176 129.293 90.1619 129.539C90.3268 129.785 90.4093 130.123 90.4093 130.553C90.4093 131.372 90.2135 132.007 89.8218 132.458C88.9354 133.543 87.9666 134.434 86.9153 135.131C85.8846 135.827 84.7096 136.175 83.3903 136.175C81.5763 136.175 80.2262 135.356 79.3398 133.717C78.474 132.079 78.0411 129.959 78.0411 127.358C78.0411 124.859 78.3606 122.012 78.9996 118.817C79.6593 115.622 80.6178 112.878 81.8752 110.584C83.1533 108.29 84.6684 107.143 86.4206 107.143C87.41 107.143 88.183 107.604 88.7396 108.525C89.3168 109.427 89.6054 110.727 89.6054 112.427C89.6054 114.864 88.9251 117.691 87.5646 120.906C86.2041 124.122 84.3592 127.307 82.0299 130.461C82.1741 131.301 82.4112 131.905 82.741 132.273C83.0708 132.622 83.5037 132.796 84.0397 132.796C84.8848 132.796 85.6269 132.56 86.266 132.089C86.905 131.598 87.7192 130.768 88.7087 129.601C88.956 129.314 89.2343 129.171 89.5435 129.171ZM85.7403 110.184C85.2662 110.184 84.7302 111.034 84.1324 112.734C83.5346 114.434 83.009 116.544 82.5555 119.063C82.102 121.582 81.8546 123.999 81.8134 126.313C83.277 123.917 84.4416 121.521 85.3074 119.124C86.1732 116.708 86.6061 114.506 86.6061 112.519C86.6061 110.963 86.3175 110.184 85.7403 110.184Z" fill="black"/>
<path d="M79.4764 129.17C79.7444 129.17 79.9505 129.293 80.0948 129.539C80.2597 129.785 80.3422 130.123 80.3422 130.553C80.3422 131.372 80.1463 132.007 79.7547 132.458C78.992 133.379 77.9098 134.229 76.508 135.008C75.1269 135.786 73.6427 136.175 72.0555 136.175C69.8911 136.175 68.2111 135.591 67.0155 134.424C65.8199 133.257 65.2221 131.659 65.2221 129.631C65.2221 128.218 65.521 126.907 66.1188 125.699C66.7166 124.47 67.5411 123.497 68.5924 122.78C69.6643 122.063 70.8702 121.705 72.2101 121.705C73.4057 121.705 74.3642 122.063 75.0857 122.78C75.8072 123.477 76.1679 124.429 76.1679 125.637C76.1679 127.051 75.6526 128.269 74.6219 129.293C73.6118 130.297 71.8906 131.096 69.4582 131.69C69.9735 132.632 70.9527 133.103 72.3956 133.103C73.3232 133.103 74.3745 132.785 75.5495 132.151C76.7451 131.495 77.7758 130.645 78.6416 129.601C78.8889 129.314 79.1672 129.17 79.4764 129.17ZM71.6845 124.716C70.9218 124.716 70.2724 125.156 69.7365 126.037C69.2211 126.918 68.9635 127.983 68.9635 129.232V129.293C70.1797 129.007 71.1382 128.577 71.8391 128.003C72.5399 127.43 72.8904 126.764 72.8904 126.006C72.8904 125.617 72.777 125.31 72.5502 125.084C72.3441 124.839 72.0555 124.716 71.6845 124.716Z" fill="black"/>
<path d="M53.8102 136.175C53.0269 136.175 52.4703 135.765 52.1405 134.946C51.8313 134.127 51.6767 132.816 51.6767 131.014C51.6767 128.351 52.0581 125.822 52.8208 123.425C53.0063 122.832 53.3052 122.401 53.7174 122.135C54.1503 121.848 54.7481 121.705 55.5108 121.705C55.9231 121.705 56.2117 121.756 56.3766 121.859C56.5415 121.961 56.624 122.156 56.624 122.442C56.624 122.77 56.4694 123.507 56.1602 124.654C55.954 125.474 55.7891 126.19 55.6654 126.805C55.5418 127.419 55.4387 128.177 55.3562 129.078C56.0365 127.317 56.7992 125.883 57.6443 124.777C58.4895 123.671 59.314 122.883 60.118 122.412C60.9425 121.941 61.6949 121.705 62.3752 121.705C63.7151 121.705 64.385 122.371 64.385 123.702C64.385 123.968 64.2922 124.613 64.1067 125.637C63.9418 126.457 63.8593 126.969 63.8593 127.174C63.8593 127.89 64.117 128.249 64.6324 128.249C65.2095 128.249 65.9516 127.798 66.8586 126.897C67.1266 126.631 67.4049 126.498 67.6935 126.498C67.9615 126.498 68.1676 126.621 68.3119 126.866C68.4768 127.092 68.5593 127.399 68.5593 127.788C68.5593 128.546 68.3531 129.14 67.9408 129.57C67.3637 130.164 66.6834 130.676 65.9001 131.106C65.1374 131.516 64.3232 131.72 63.4574 131.72C62.3649 131.72 61.53 131.444 60.9528 130.891C60.3963 130.338 60.118 129.59 60.118 128.648C60.118 128.341 60.1489 128.034 60.2107 127.727C60.252 127.317 60.2726 127.04 60.2726 126.897C60.2726 126.569 60.1592 126.406 59.9325 126.406C59.6233 126.406 59.211 126.754 58.6956 127.45C58.2009 128.126 57.7062 129.027 57.2115 130.154C56.7167 131.28 56.3148 132.468 56.0056 133.717C55.7788 134.68 55.5108 135.335 55.2016 135.684C54.913 136.011 54.4492 136.175 53.8102 136.175Z" fill="black"/>
<path d="M40.8939 136.176C39.6159 136.176 38.5955 135.715 37.8328 134.793C37.0701 133.871 36.6888 132.663 36.6888 131.168C36.6888 129.529 37.0701 127.983 37.8328 126.529C38.5955 125.054 39.6056 123.877 40.863 122.996C42.1411 122.095 43.4913 121.644 44.9136 121.644C45.3671 121.644 45.666 121.736 45.8103 121.921C45.9752 122.084 46.1092 122.392 46.2123 122.842C46.6451 122.76 47.0986 122.719 47.5728 122.719C48.5828 122.719 49.0879 123.078 49.0879 123.795C49.0879 124.225 48.9333 125.249 48.6241 126.867C48.1499 129.222 47.9129 130.861 47.9129 131.782C47.9129 132.09 47.985 132.335 48.1293 132.52C48.2942 132.704 48.5004 132.796 48.7477 132.796C49.1394 132.796 49.6135 132.55 50.1701 132.059C50.7266 131.547 51.479 130.728 52.4273 129.601C52.6746 129.314 52.9529 129.171 53.2621 129.171C53.5301 129.171 53.7362 129.294 53.8805 129.54C54.0454 129.785 54.1279 130.123 54.1279 130.553C54.1279 131.373 53.9321 132.008 53.5404 132.458C52.6952 133.503 51.7986 134.383 50.8503 135.1C49.9021 135.817 48.9848 136.176 48.0984 136.176C47.4182 136.176 46.7894 135.95 46.2123 135.5C45.6557 135.029 45.2331 134.394 44.9445 133.595C43.8726 135.315 42.5224 136.176 40.8939 136.176ZM42.0071 133.073C42.4606 133.073 42.8935 132.806 43.3057 132.274C43.718 131.741 44.0169 131.035 44.2024 130.154L45.3465 124.501C44.4807 124.522 43.6768 124.849 42.9347 125.484C42.2132 126.099 41.636 126.918 41.2032 127.942C40.7703 128.966 40.5538 130.052 40.5538 131.199C40.5538 131.834 40.6775 132.305 40.9249 132.612C41.1928 132.919 41.5536 133.073 42.0071 133.073Z" fill="black"/>
<path d="M38.7309 129.171C38.9989 129.171 39.205 129.293 39.3493 129.539C39.5142 129.785 39.5967 130.123 39.5967 130.553C39.5967 131.372 39.4008 132.007 39.0092 132.458C38.0609 133.543 37.0818 134.434 36.0717 135.131C35.0823 135.827 33.9485 136.175 32.6705 136.175C31.6192 136.175 30.8256 135.878 30.2896 135.284C29.7537 134.67 29.4857 133.789 29.4857 132.642C29.4857 132.069 29.63 131.045 29.9186 129.57C30.1865 128.28 30.3205 127.389 30.3205 126.897C30.3205 126.569 30.2072 126.406 29.9804 126.406C29.7124 126.406 29.3311 126.754 28.8364 127.45C28.3416 128.126 27.8469 129.027 27.3522 130.154C26.8574 131.28 26.4555 132.468 26.1463 133.717C25.7546 135.356 24.7858 136.175 23.2398 136.175C22.6213 136.175 22.2091 135.96 22.0029 135.53C21.8174 135.079 21.7247 134.281 21.7247 133.134C21.7247 132.478 21.735 131.956 21.7556 131.567L21.7865 129.109C21.7865 125.955 22.106 122.668 22.745 119.247C23.4047 115.827 24.3632 112.96 25.6206 110.645C26.8987 108.31 28.4241 107.143 30.1969 107.143C31.1451 107.143 31.9078 107.552 32.485 108.372C33.0828 109.171 33.3817 110.215 33.3817 111.505C33.3817 113.574 32.7736 115.725 31.5574 117.957C30.3412 120.169 28.3622 122.76 25.6206 125.73C25.5588 126.795 25.5279 127.89 25.5279 129.017C26.2081 127.276 26.9605 125.863 27.7851 124.777C28.6302 123.671 29.4548 122.883 30.2587 122.412C31.0832 121.941 31.8356 121.705 32.5159 121.705C33.8558 121.705 34.5257 122.371 34.5257 123.702C34.5257 124.501 34.299 125.945 33.8455 128.034C33.4538 129.816 33.258 130.993 33.258 131.567C33.258 132.386 33.5569 132.796 34.1547 132.796C34.5669 132.796 35.0514 132.55 35.6079 132.058C36.1851 131.546 36.9478 130.727 37.896 129.601C38.1434 129.314 38.4217 129.171 38.7309 129.171ZM29.5475 110.184C29.1765 110.184 28.7642 110.717 28.3107 111.782C27.8572 112.826 27.414 114.25 26.9811 116.052C26.5689 117.834 26.2287 119.78 25.9608 121.889C27.2388 120.394 28.2901 118.766 29.1146 117.005C29.9598 115.243 30.3824 113.646 30.3824 112.212C30.3824 111.557 30.3102 111.055 30.1659 110.707C30.0216 110.358 29.8155 110.184 29.5475 110.184Z" fill="black"/>
<path d="M9.05969 136.267C6.31808 136.267 4.12272 135.755 2.47363 134.731C0.824545 133.687 0 132.099 0 129.969C0 128.843 0.195829 127.983 0.587488 127.389C0.979147 126.795 1.55633 126.498 2.31903 126.498C2.8756 126.498 3.3291 126.641 3.67953 126.928C4.02996 127.215 4.20518 127.583 4.20518 128.034C4.20518 128.444 4.17426 128.802 4.11242 129.109C4.11242 129.191 4.0918 129.334 4.05058 129.539C4.02996 129.744 4.01966 129.959 4.01966 130.184C4.01966 131.106 4.48346 131.792 5.41108 132.243C6.3593 132.693 7.67858 132.919 9.36889 132.919C11.1211 132.919 12.4919 132.611 13.4813 131.997C14.4708 131.362 14.9655 130.481 14.9655 129.355C14.9655 128.659 14.7387 128.065 14.2852 127.573C13.8317 127.061 13.2649 126.641 12.5846 126.313C11.9044 125.965 10.9458 125.545 9.70902 125.054C8.12177 124.439 6.82311 123.856 5.81304 123.303C4.82359 122.75 3.96812 122.002 3.24665 121.06C2.54578 120.097 2.19535 118.909 2.19535 117.496C2.19535 116.022 2.58701 114.711 3.37033 113.564C4.17426 112.417 5.31831 111.526 6.8025 110.891C8.30729 110.256 10.0698 109.939 12.0899 109.939C13.5947 109.939 14.9758 110.164 16.2332 110.615C17.4907 111.045 18.4904 111.71 19.2325 112.611C19.9952 113.513 20.3766 114.619 20.3766 115.929C20.3766 117.22 20.1807 118.193 19.7891 118.848C19.3974 119.503 18.8202 119.831 18.0575 119.831C17.5216 119.831 17.0681 119.667 16.697 119.34C16.3466 119.012 16.1714 118.623 16.1714 118.172C16.1714 117.783 16.2023 117.425 16.2641 117.097C16.326 116.482 16.3569 116.093 16.3569 115.929C16.3569 115.069 15.9343 114.414 15.0892 113.963C14.244 113.513 13.1927 113.287 11.9353 113.287C10.1625 113.287 8.80202 113.615 7.85379 114.27C6.92618 114.905 6.46237 115.807 6.46237 116.974C6.46237 117.752 6.69943 118.418 7.17354 118.971C7.66827 119.524 8.27637 119.985 8.99785 120.353C9.71932 120.722 10.7294 121.162 12.028 121.674C13.5947 122.309 14.8521 122.883 15.8003 123.395C16.7486 123.907 17.5525 124.603 18.2121 125.484C18.8924 126.365 19.2325 127.45 19.2325 128.741C19.2325 131.157 18.3049 133.021 16.4497 134.332C14.6151 135.622 12.1517 136.267 9.05969 136.267Z" fill="black"/>
<path fill-rule="evenodd" clip-rule="evenodd" d="M34.4237 31.746C16.8908 31.746 2.38095 45.9592 2.38095 63.4921C2.38095 81.0249 16.8908 95.2381 34.4237 95.2381C51.9565 95.2381 66.4664 81.0249 66.4664 63.4921C66.4664 45.9592 51.9565 31.746 34.4237 31.746ZM34.4236 42.3278C22.7351 42.3278 13.0618 51.8032 13.0618 63.4918C13.0618 75.1804 22.7351 84.6558 34.4236 84.6558C46.1122 84.6558 55.7855 75.1804 55.7855 63.4918C55.7855 51.8032 46.1122 42.3278 34.4236 42.3278Z" fill="url(#paint0_linear_3150_2048)"/>
<path fill-rule="evenodd" clip-rule="evenodd" d="M62.016 0C42.5351 0 26.413 15.7924 26.413 35.2734C26.413 54.7543 42.5351 70.5467 62.016 70.5467C81.497 70.5467 97.619 54.7543 97.619 35.2734C97.619 15.7924 81.497 0 62.016 0ZM62.016 10.5822C48.3793 10.5822 37.0939 21.6369 37.0939 35.2736C37.0939 48.9102 48.3793 59.9649 62.016 59.9649C75.6527 59.9649 86.9381 48.9102 86.9381 35.2736C86.9381 21.6369 75.6527 10.5822 62.016 10.5822Z" fill="url(#paint1_linear_3150_2048)"/>
<mask id="mask0_3150_2048" style="mask-type:alpha" maskUnits="userSpaceOnUse" x="26" y="31" width="13" height="14">
<rect x="26.413" y="31.7462" width="12.4611" height="12.3457" fill="#D9D9D9"/>
</mask>
<g mask="url(#mask0_3150_2048)">
<mask id="mask1_3150_2048" style="mask-type:alpha" maskUnits="userSpaceOnUse" x="26" y="0" width="72" height="71">
<path fill-rule="evenodd" clip-rule="evenodd" d="M62.016 0C42.5351 0 26.413 15.7924 26.413 35.2734C26.413 54.7543 42.5351 70.5467 62.016 70.5467C81.497 70.5467 97.619 54.7543 97.619 35.2734C97.619 15.7924 81.497 0 62.016 0ZM62.016 10.5822C48.3793 10.5822 37.0939 21.6369 37.0939 35.2736C37.0939 48.9102 48.3793 59.9649 62.016 59.9649C75.6527 59.9649 86.9381 48.9102 86.9381 35.2736C86.9381 21.6369 75.6527 10.5822 62.016 10.5822Z" fill="url(#paint2_linear_3150_2048)"/>
</mask>
<g mask="url(#mask1_3150_2048)">
<path fill-rule="evenodd" clip-rule="evenodd" d="M34.4237 31.7462C16.8908 31.7462 2.38095 45.9594 2.38095 63.4922C2.38095 81.0251 16.8908 95.2382 34.4237 95.2382C51.9565 95.2382 66.4664 81.0251 66.4664 63.4922C66.4664 45.9594 51.9565 31.7462 34.4237 31.7462ZM34.4236 42.3279C22.7351 42.3279 13.0618 51.8034 13.0618 63.492C13.0618 75.1805 22.7351 84.656 34.4236 84.656C46.1122 84.656 55.7855 75.1805 55.7855 63.492C55.7855 51.8034 46.1122 42.3279 34.4236 42.3279Z" fill="url(#paint3_linear_3150_2048)"/>
</g>
</g>
<defs>
<linearGradient id="paint0_linear_3150_2048" x1="2.38095" y1="31.746" x2="65.8703" y2="95.8287" gradientUnits="userSpaceOnUse">
<stop stop-color="#76FFEF"/>
<stop offset="1" stop-color="#AA76FF"/>
</linearGradient>
<linearGradient id="paint1_linear_3150_2048" x1="26.413" y1="0" x2="96.9567" y2="71.203" gradientUnits="userSpaceOnUse">
<stop stop-color="#FFC876"/>
<stop offset="1" stop-color="#FF76C0"/>
</linearGradient>
<linearGradient id="paint2_linear_3150_2048" x1="26.413" y1="0" x2="96.9567" y2="71.203" gradientUnits="userSpaceOnUse">
<stop stop-color="#FFC876"/>
<stop offset="1" stop-color="#FF76C0"/>
</linearGradient>
<linearGradient id="paint3_linear_3150_2048" x1="2.38095" y1="31.7462" x2="65.8703" y2="95.8289" gradientUnits="userSpaceOnUse">
<stop stop-color="#76FFEF"/>
<stop offset="1" stop-color="#AA76FF"/>
</linearGradient>
</defs>
</svg>
