<svg width="24" height="24" viewBox="0 0 24 24" fill="none" xmlns="http://www.w3.org/2000/svg">
<path d="M9.70814 4.74609V8.15919C9.70814 8.37794 9.53139 8.55422 9.31361 8.55422H9.20814C8.99036 8.55422 8.81311 8.37794 8.81311 8.15919V4.73047C8.81311 4.16797 8.4347 4 8.07189 4C7.70908 4 7.33067 4.16797 7.33067 4.73047V8.15919C7.33067 8.37794 7.15342 8.55422 6.93564 8.55422H6.83017C6.61239 8.55422 6.43564 8.37794 6.43564 8.15919V4.74609C6.43564 3.73925 5.00008 3.77344 5.00008 4.75731C5.00008 5.93553 5.00008 8.01659 5.00008 8.01659C4.99324 9.82616 5.42586 10.2964 6.13974 10.8603C6.71542 11.3144 7.20711 11.5747 7.20711 12.7026V19.9585H8.93661V12.7026C8.93661 11.5747 9.4283 11.3144 10.004 10.8603C10.7183 10.2964 11.1505 9.82616 11.1436 8.01659C11.1436 8.01659 11.1436 5.93553 11.1436 4.75731C11.1437 3.77344 9.70814 3.73925 9.70814 4.74609Z" fill="#0BC5EA"/>
<path d="M15.2745 5.08582C14.9073 6.1156 13.8502 8.5282 13.7833 10.6591C13.6798 13.9667 15.7067 13.4774 15.7428 15.6444V19.9784H17.464L17.4723 19.9999C17.4723 19.9999 17.4723 19.9911 17.4723 19.9784C17.4723 19.6889 17.4723 16.2401 17.4723 12.7221C17.4723 9.2421 17.4723 5.69717 17.4723 5.08585C17.4723 3.82995 15.8463 3.48329 15.2745 5.08582Z" fill="#ED64A6"/>
</svg>
